<svg width="37" height="56" viewBox="0 0 37 56" fill="none" xmlns="http://www.w3.org/2000/svg">
<path d="M0.890625 38.3789L7.75586 35.127H8.11719V43.7988C8.11719 45.4609 9.57454 46.8701 12.4893 48.0264C14.5127 48.8213 16.6686 49.2188 18.957 49.2188C21.0046 49.2188 23.04 48.8213 25.0635 48.0264C27.9782 46.8701 29.4355 45.4609 29.4355 43.7988V7.01562H8.73145V6.6543L11.6582 0.439453H36.6621V43.7988C36.6621 48.207 33.9281 51.5433 28.46 53.8076C25.4007 55.0843 22.2331 55.7227 18.957 55.7227C15.4401 55.7227 12.152 55.0843 9.09277 53.8076C3.62467 51.5433 0.890625 48.207 0.890625 43.7988V38.3789Z" fill="#F58807"/>
</svg>
