<svg width="37" height="58" viewBox="0 0 37 58" fill="none" xmlns="http://www.w3.org/2000/svg">
<path d="M0.226562 57.4453V12.6406C0.226562 8.23242 2.96061 4.89616 8.42871 2.63184C11.488 1.35514 14.8363 0.716797 18.4736 0.716797C22.111 0.716797 25.4593 1.35514 28.5186 2.63184C33.9867 4.89616 36.7207 8.23242 36.7207 12.6406V54.1934L29.8555 57.4453H29.4941V12.6406C29.4941 10.9785 28.0368 9.56934 25.1221 8.41309C23.0986 7.61816 20.8825 7.2207 18.4736 7.2207C16.0648 7.2207 13.8486 7.61816 11.8252 8.41309C8.91048 9.56934 7.45312 10.9785 7.45312 12.6406V54.1934L0.587891 57.4453H0.226562Z" fill="#25858B"/>
</svg>
