<svg width="37" height="57" viewBox="0 0 37 57" fill="none" xmlns="http://www.w3.org/2000/svg">
<path d="M7.45312 44.7988C7.45312 46.4368 8.91048 47.846 11.8252 49.0264C13.8486 49.8213 16.0648 50.2188 18.4736 50.2188C20.8825 50.2188 23.0986 49.8213 25.1221 49.0264C28.0368 47.8701 29.4941 46.4609 29.4941 44.7988V12.6406C29.4941 11.0026 28.0368 9.59342 25.1221 8.41309C23.0986 7.61816 20.8825 7.2207 18.4736 7.2207C16.0648 7.2207 13.8486 7.61816 11.8252 8.41309C8.91048 9.56934 7.45312 10.9785 7.45312 12.6406V44.7988ZM0.226562 44.7988C0.226562 44.7988 0.226562 34.0794 0.226562 12.6406C0.226562 8.23242 2.96061 4.89616 8.42871 2.63184C11.488 1.35514 14.8363 0.716797 18.4736 0.716797C22.111 0.716797 25.4593 1.35514 28.5186 2.63184C33.9867 4.89616 36.7207 8.23242 36.7207 12.6406V44.7988C36.7207 49.207 33.9867 52.5433 28.5186 54.8076C25.4593 56.0843 22.111 56.7227 18.4736 56.7227C14.8363 56.7227 11.488 56.0843 8.42871 54.8076C2.96061 52.5433 0.226562 49.207 0.226562 44.7988Z" fill="#F58807"/>
</svg>
